<?xml version="1.0" encoding="UTF-8" standalone="no"?>
<svg
   xmlns:dc="http://purl.org/dc/elements/1.1/"
   xmlns:cc="http://creativecommons.org/ns#"
   xmlns:rdf="http://www.w3.org/1999/02/22-rdf-syntax-ns#"
   xmlns:svg="http://www.w3.org/2000/svg"
   xmlns="http://www.w3.org/2000/svg"
   xmlns:xlink="http://www.w3.org/1999/xlink"
   id="svg228"
   height="535"
   width="7795"
   xml:space="preserve"
   viewBox="0 0 7795 535"
   y="0px"
   x="0px"
   version="1.1"><metadata
   id="metadata248"><rdf:RDF><cc:Work
       rdf:about=""><dc:format>image/svg+xml</dc:format><dc:type
         rdf:resource="http://purl.org/dc/dcmitype/StillImage" /><dc:title></dc:title></cc:Work></rdf:RDF></metadata><defs
   id="defs246" />
<image
   xlink:href="../assets/img/escaparate/banco.jpg"
   id="image254"
   height="113.3"
   width="168.96001"
   style="overflow:visible"
   x="350.89227"
   y="397.80991" />
<image
   xlink:href="../assets/img/escaparate/transutopias.jpg"
   y="200.3557"
   x="59.19339"
   id="image4927"
   preserveAspectRatio="none"
   height="65.390564"
   width="116.63707" />
<image
   xlink:href="../assets/img/escaparate/artur-barrio.jpg"
   y="15.669447"
   x="20.9041"
   id="image4916"
   preserveAspectRatio="none"
   height="97.641663"
   width="148.97903" />
<image
   xlink:href="../assets/img/escaparate/lktab.jpg"
   id="image186"
   height="73.280602"
   width="120.9982"
   style="overflow:visible"
   x="865.9057"
   y="41.841312" />
<image
   xlink:href="../assets/img/escaparate/andres-jaque.jpg"
   width="96.675087"
   height="137.66533"
   preserveAspectRatio="none"
   id="image4421"
   x="712.34137"
   y="151.07904" />
<image
   xlink:href="../assets/img/escaparate/buendia-01.jpg"
   id="image136"
   height="95"
   width="140"
   style="overflow:visible"
   x="1195.3672"
   y="415.31122" />
<image
   xlink:href="../assets/img/escaparate/ao.jpg"
   id="image120"
   height="90.388062"
   width="112.98508"
   style="overflow:visible"
   x="563.6651"
   y="16.266657" />
<image
   xlink:href="../assets/img/escaparate/fl2.jpg"
   id="image164"
   height="110.21358"
   width="250.5522"
   style="overflow:visible"
   x="908.78778"
   y="207.30638" />
<image
   xlink:href="../assets/img/escaparate/TSgallery.jpg"
   id="image250"
   height="91.996101"
   width="138.34"
   style="overflow:visible"
   x="924.04303"
   y="411.72687" />
<image
   xlink:href="../assets/img/escaparate/24x7.jpg"
   id="image112"
   height="88.003799"
   width="135.07561"
   style="overflow:visible"
   x="1118.4661"
   y="14.282319" />
<image
   xlink:href="../assets/img/escaparate/hs.jpg"
   id="image172"
   height="152.325"
   width="130.9995"
   style="overflow:visible;opacity:1"
   x="1270.4355"
   y="200.59105" />
<image
   xlink:href="../assets/img/escaparate/cfgl4.jpg"
   id="image144"
   height="91.998001"
   width="91.998001"
   style="overflow:visible"
   x="1386.6259"
   y="29.901491" />
<image
   xlink:href="../assets/img/escaparate/dark3.jpg"
   id="image150"
   height="170.60809"
   width="85.474998"
   style="overflow:visible"
   x="1469.6271"
   y="343.09851" />
<image
   xlink:href="../assets/img/escaparate/cartagena.jpg"
   id="image140"
   height="178.2655"
   width="134.53999"
   style="overflow:visible"
   x="1611.9817"
   y="163.72501" />
<image
   xlink:href="../assets/img/escaparate/eec.jpg"
   id="image160"
   height="114.637"
   width="197.64999"
   style="overflow:visible"
   x="1647.9817"
   y="0" />
<image
   xlink:href="../assets/img/escaparate/netescopio.jpg"
   id="image208"
   height="101.0045"
   width="175.66"
   style="overflow:visible"
   x="1733.7698"
   y="394.70447" />
<image
   xlink:href="../assets/img/escaparate/tomas.jpg"
   id="image246"
   height="129.99899"
   width="152.94"
   style="overflow:visible"
   x="1904.9817"
   y="159" />
<image
   xlink:href="../assets/img/escaparate/lax2.jpg"
   id="image180"
   height="114.0224"
   width="94.003197"
   style="overflow:visible"
   x="2056.9817"
   y="369.2778" />
<image
   xlink:href="../assets/img/escaparate/7impertinentes.jpg"
   id="image110"
   height="87.483002"
   width="101.0031"
   style="overflow:visible"
   x="2077.4744"
   y="32.507343" />
<image
   xlink:href="../assets/img/escaparate/multitsing.jpg"
   id="image206"
   height="150"
   width="104"
   style="overflow:visible"
   x="2190.9817"
   y="180" />
<image
   xlink:href="../assets/img/escaparate/papelera.jpg"
   id="image216"
   height="121.464"
   width="117.9936"
   style="overflow:visible"
   x="2294.9817"
   y="391.26471" />
<image
   xlink:href="../assets/img/escaparate/de11a21-esc-01.jpg"
   id="image152"
   height="189.774"
   width="186.8544"
   style="overflow:visible"
   x="2383.1201"
   y="31.6562" />
<image
   xlink:href="../assets/img/escaparate/aliasyed.jpg"
   id="image118"
   height="130"
   width="74"
   style="overflow:visible"
   x="2507.9817"
   y="301" />
<image
   xlink:href="../assets/img/escaparate/plp-lomos.jpg"
   id="image220"
   height="120"
   width="71"
   style="overflow:visible"
   x="2683.9817"
   y="153" />
<image
   xlink:href="../assets/img/escaparate/outsiders.jpg"
   id="image214"
   height="90"
   width="90"
   style="overflow:visible"
   x="2710.9817"
   y="410.80298" />
<image
   xlink:href="../assets/img/escaparate/chachi_e2.jpg"
   id="image146"
   height="110"
   width="119"
   style="overflow:visible"
   x="2778.9817"
   y="-1" />
<image
   xlink:href="../assets/img/escaparate/despleg_e.jpg"
   id="image154"
   height="197.246"
   width="186.004"
   style="overflow:visible"
   x="2900.9817"
   y="173.033" />
<image
   xlink:href="../assets/img/escaparate/postales100.jpg"
   id="image222"
   height="123.33"
   width="147.996"
   style="overflow:visible"
   x="3006.9817"
   y="409.33331" />
<image
   xlink:href="../assets/img/escaparate/retirada.jpg"
   id="image234"
   height="120.9978"
   width="93.555"
   style="overflow:visible"
   x="3094.5693"
   y="5" />
<image
   xlink:href="../assets/img/escaparate/jacksmith.jpg"
   id="image178"
   height="137.02499"
   width="95.003998"
   style="overflow:visible"
   x="3242.9817"
   y="277" />
<image
   xlink:href="../assets/img/escaparate/presentense.jpg"
   id="image224"
   height="138.9942"
   width="93.915001"
   style="overflow:visible"
   x="3310.9817"
   y="45" />
<image
   xlink:href="../assets/img/escaparate/ec.jpg"
   id="image156"
   height="138.006"
   width="138.006"
   style="overflow:visible"
   x="3439.5134"
   y="200.96204" />
<image
   xlink:href="../assets/img/escaparate/Bienal07.jpg"
   id="image126"
   height="132.735"
   width="123.0011"
   style="overflow:visible"
   x="3543.1335"
   y="22.898783" />
<image
   xlink:href="../assets/img/escaparate/mmcubierta.jpg"
   id="image200"
   height="170"
   width="208"
   style="overflow:visible"
   x="3544.9817"
   y="365" />
<image
   xlink:href="../assets/img/escaparate/ccc07.jpg"
   id="image142"
   height="157.995"
   width="110.5965"
   style="overflow:visible"
   x="3709.9817"
   y="168" />
<image
   xlink:href="../assets/img/escaparate/biografias.jpg"
   id="image130"
   height="176.2915"
   width="126.525"
   style="overflow:visible"
   x="3899.3867"
   y="292.10635" />
<image
   xlink:href="../assets/img/escaparate/bombita.jpg"
   id="image132"
   height="93.997803"
   width="91.260002"
   style="overflow:visible"
   x="3904.665"
   y="41.063259" />
<image
   xlink:href="../assets/img/escaparate/prim_cub01.jpg"
   id="image228"
   height="185"
   width="112"
   style="overflow:visible"
   x="4126.9819"
   y="225" />
<image
   xlink:href="../assets/img/escaparate/mn.jpg"
   id="image202"
   height="137.0061"
   width="108.735"
   style="overflow:visible"
   x="4188.9819"
   y="-1" />
<image
   xlink:href="../assets/img/escaparate/inventario_cub.jpg"
   id="image176"
   height="142.3125"
   width="99"
   style="overflow:visible"
   x="4351.9819"
   y="378" />
<image
   xlink:href="../assets/img/escaparate/revistas01.jpg"
   id="image236"
   height="175"
   width="207"
   style="overflow:visible"
   x="4379.5513"
   y="111.07591" />
<image
   xlink:href="../assets/img/escaparate/milmilmil.jpg"
   id="image198"
   height="155"
   width="147"
   style="overflow:visible"
   x="4560.6528"
   y="361.08856" />
<image
   xlink:href="../assets/img/escaparate/lineasdemira01.jpg"
   id="image184"
   height="150"
   width="111"
   style="overflow:visible"
   x="4673.9819"
   y="2" />
<image
   xlink:href="../assets/img/escaparate/albarrc_e.jpg"
   id="image116"
   height="130"
   width="89"
   style="overflow:visible"
   x="4725.9819"
   y="212" />
<image
   xlink:href="../assets/img/escaparate/eclectic2.jpg"
   id="image158"
   height="49.998001"
   width="196.146"
   style="overflow:visible"
   x="4790.9819"
   y="422" />
<image
   xlink:href="../assets/img/escaparate/tempos2.jpg"
   id="image244"
   height="103"
   width="160"
   style="overflow:visible"
   x="4929.3613"
   y="24.936739" />
<image
   xlink:href="../assets/img/escaparate/fluxus.jpg"
   id="image166"
   height="183.2316"
   width="127.836"
   style="overflow:visible"
   x="4962.1396"
   y="174.6564" />
<image
   xlink:href="../assets/img/escaparate/visionarios105px.jpg"
   id="image252"
   height="105"
   width="76"
   style="overflow:visible"
   x="5062.9819"
   y="418" />
<image
   xlink:href="../assets/img/escaparate/acerca.jpg"
   id="image114"
   height="178.08"
   width="159"
   style="overflow:visible"
   x="5205.9819"
   y="235.92" />
<image
   xlink:href="../assets/img/escaparate/LH.jpg"
   id="image182"
   height="150"
   width="118"
   style="overflow:visible"
   x="5290.9819"
   y="2" />
<image
   xlink:href="../assets/img/escaparate/hfde_e.jpg"
   id="image168"
   height="74"
   width="149"
   style="overflow:visible"
   x="5440.2695"
   y="436" />
<image
   xlink:href="../assets/img/escaparate/sanidad.jpg"
   id="image240"
   height="184.005"
   width="141"
   style="overflow:visible"
   x="5512.9819"
   y="169" />
<image
   xlink:href="../assets/img/escaparate/marco_e.jpg"
   id="image192"
   height="48"
   width="171"
   style="overflow:visible"
   x="5549.9565"
   y="47.848175" />
<image
   xlink:href="../assets/img/escaparate/hfde2_e.jpg"
   id="image170"
   height="74"
   width="148"
   style="overflow:visible"
   x="5612.2695"
   y="436" />
<image
   xlink:href="../assets/img/escaparate/arco_cubierta.jpg"
   id="image122"
   height="185"
   width="136"
   style="overflow:visible"
   x="5768.9819"
   y="98" />
<image
   xlink:href="../assets/img/escaparate/sb_cubierta.jpg"
   id="image242"
   height="139.0005"
   width="97.904701"
   style="overflow:visible"
   x="5885.0024"
   y="378.95142" />
<image
   xlink:href="../assets/img/escaparate/idealista-01b.jpg"
   id="image174"
   height="138.01601"
   width="227"
   style="overflow:visible"
   x="6031.9819"
   y="185.492" />
<image
   xlink:href="../assets/img/escaparate/lumin_e.jpg"
   id="image188"
   height="130"
   width="91"
   style="overflow:visible"
   x="6041.9819"
   y="-1" />
<image
   xlink:href="../assets/img/escaparate/fecyt2_e.jpg"
   id="image162"
   height="183"
   width="173"
   style="overflow:visible"
   x="6159.9819"
   y="351" />
<image
   xlink:href="../assets/img/escaparate/carmor_e.jpg"
   id="image138"
   height="125"
   width="96"
   style="overflow:visible"
   x="6314.9819"
   y="37" />
<image
   xlink:href="../assets/img/escaparate/mncn_e.png"
   id="image204"
   height="134.83508"
   width="179.35609"
   style="overflow:visible"
   x="6391.4351"
   y="223.74738" />
<image
   xlink:href="../assets/img/escaparate/ps1_e2.jpg"
   id="image230"
   height="87"
   width="191"
   style="overflow:visible"
   x="6457.4473"
   y="418.39804" />
<image
   xlink:href="../assets/img/escaparate/otngcbrt_e.jpg"
   id="image212"
   height="127"
   width="164"
   style="overflow:visible"
   x="6542.0117"
   y="60.874065" />
<image
   xlink:href="../assets/img/escaparate/prf_amo_e.jpg"
   id="image226"
   height="102"
   width="151"
   style="overflow:visible"
   x="6704.7012"
   y="242.23659" />
<image
   xlink:href="../assets/img/escaparate/bienalvenecia.jpg"
   id="image128"
   height="153"
   width="139"
   style="overflow:visible"
   x="6842.5215"
   y="8.1428776" />
<image
   xlink:href="../assets/img/escaparate/cyccport_e2.jpg"
   id="image148"
   height="150"
   width="156"
   style="overflow:visible"
   x="6858.0122"
   y="384.00327" />
<image
   xlink:href="../assets/img/escaparate/brk_e.jpg"
   id="image134"
   height="118"
   width="166"
   style="overflow:visible"
   x="6972.5186"
   y="204.77586" />
<image
   xlink:href="../assets/img/escaparate/puch_e.jpg"
   id="image232"
   height="118"
   width="148"
   style="overflow:visible"
   x="7139.5713"
   y="45.299927" />
<image
   xlink:href="../assets/img/escaparate/marcostand_e2.jpg"
   id="image194"
   height="100"
   width="194"
   style="overflow:visible"
   x="7142.0571"
   y="388.9877" />
<image
   xlink:href="../assets/img/escaparate/rstand_e.jpg"
   id="image238"
   height="107"
   width="219"
   style="overflow:visible"
   x="7283.7778"
   y="216.05331" />
<image
   xlink:href="../assets/img/escaparate/trofeo_e2.jpg"
   id="image248"
   height="100"
   width="64"
   style="overflow:visible"
   x="7421.0732"
   y="63.164127" />
<image
   xlink:href="../assets/img/escaparate/basso_e2.jpg"
   id="image124"
   height="140"
   width="156"
   style="overflow:visible"
   x="7450.4692"
   y="392.44214" />
<image
   xlink:href="../assets/img/escaparate/pixelware_e2.jpg"
   id="image218"
   height="120"
   width="155"
   style="overflow:visible"
   x="7599.5063"
   y="49.673439" />
<image
   xlink:href="../assets/img/escaparate/metro_02.jpg"
   id="image196"
   height="150.66"
   width="106.299"
   style="overflow:visible"
   x="7640.3774"
   y="278.42545" />
<a
   transform="translate(788.90575,-136.15869)"
   xlink:href="/leandro-katz"
   id="a4283">
<rect
   style="opacity:0;fill:#00ffff"
   id="rect257"
   height="73"
   width="121"
   y="178.5"
   x="77.5" />
</a>
<a
   transform="matrix(1.1286593,0,0,1.1286593,887.34329,205.04907)"
   xlink:href="/freshlatino2/"
   id="a4284">
<polygon
   style="opacity:0;fill:#00ffff"
   id="polygon259"
   points="95.5,95.5 171.5,77.5 171.5,55.5 111.5,39.5 238.5,34.5 238.5,23.5 214.5,5.5 24.5,5.5 24.5,95.5 " />
</a>
<a
   transform="matrix(1.1076969,0,0,1.1076969,128.34029,-173.59257)"
   xlink:href="/architectus-omnibus"
   id="a4286">
<path
   id="polygon263"
   d="m 470.5,251.5 24,-14 v -41 l -17,-25 h -18 l -67,19 v 19 l 13,43 z"
   style="opacity:0;fill:#00ffff" />
</a>
<a
   transform="translate(143.5938,54.891558)"
   xlink:href="/mucho-gusto-madrid/"
   id="a4287">
<polygon
   style="opacity:0;fill:#00ffff"
   id="polygon265"
   points="367.5,405.5 367.5,377.5 361.5,362.5 343.5,362.5 338.5,346.5 224.5,356.5 230.5,383.5 232.5,434.5 232.5,438.5 260.5,449.5 " />
</a>
<a
   transform="translate(1183.3672,-10.688787)"
   xlink:href="/buen-dia"
   id="a4302">
<path
   style="opacity:0;fill:#00ffff"
   d="M 95.058594,428.38867 C 89.164669,435.4511 83.511727,442.73579 77.085938,449.33398 63.423564,446.87541 49.91636,442.47434 38.208984,434.87695 22.533833,437.80718 16.599435,458.919 25.330078,471.24414 32.569429,483.36155 48.937454,490.42215 49.806641,506 c -0.470694,4.79052 5.178875,4.45744 8.279297,4.26367 16.93153,0.33061 33.881435,-0.21883 50.799812,0.30358 4.52913,-0.25088 9.23529,-0.72146 13.49511,-2.08873 1.02648,-15.18348 15.0453,-24.52397 26.44336,-32.24805 3.52489,-7.86334 -5.37121,-13.47572 -7.99219,-20.08789 -2.49295,-4.63119 -7.89043,-6.08446 -12.70829,-4.68555 -8.87277,0.22048 -17.7481,-0.0947 -26.62179,0.0508 -1.3393,-8.65969 -2.681175,-17.31898 -4.021481,-25.97851 -0.807292,0.95312 -1.614584,1.90625 -2.421875,2.85937 z"
   id="polygon267" />
</a>
<a
   transform="matrix(1.0072617,0,0,1,462.5587,6.2229691)"
   xlink:href="/teresa-serrano"
   id="a4311">
<rect
   style="opacity:0;fill:#00ffff"
   id="rect269"
   height="92"
   width="139"
   y="405.5"
   x="456.5" />
</a>
<a
   transform="translate(703.43548,6.5910484)"
   id="a4305"
   xlink:href="/hito-steyerl">
<polygon
   style="opacity:0;fill:#00ffff"
   id="polygon271"
   points="672.5,341.5 672.5,334.5 680.5,334.5 677.5,199.5 586.5,202.5 586.5,334.5 " />
</a>
<a
   transform="translate(739.626,-1.0985081)"
   xlink:href="/centro-federico-garcia-lorca"
   id="a4317">
<path
   style="opacity:0;fill:#00ffff"
   d="m 662.68555,25.859375 c -16.18868,0.902612 -27.92458,23.305433 -16.85938,36.021484 10.50907,5.242963 25.114,4.511795 31.9668,15.607422 8.92901,14.305028 2.90908,31.696439 4.92187,47.267579 12.35709,-1.06978 24.90786,0.24053 37.34766,-0.25616 4.83034,0.40547 4.67447,-6.95532 7.30309,-10.13117 4.64458,-9.59885 9.53999,-19.116448 12.79847,-29.331421 -3.98777,-8.125816 -6.35779,-17.108819 -11.74414,-24.5 -13.92999,-1.057592 -28.41853,-0.711546 -41.56054,-6.164062 -1.25741,-12.72985 -9.34729,-28.992266 -24.17383,-28.513672 z"
   id="polygon273" />
</a>
<a
   transform="translate(722.11012,1.0985081)"
   xlink:href="/dark"
   id="a4308">
<path
   style="opacity:0;fill:#00ffff"
   d="m 789.73047,339.51758 c -2.76085,4.95197 -6.80431,11.75014 -13.50391,10.05469 -6.0088,1.86553 -4.00718,9.72961 -0.41992,12.97265 8.97881,12.76467 7.13208,29.78221 1.02403,43.34075 -9.18393,26.60133 -11.23884,58.55648 5.16933,82.8741 2.90493,3.61461 5.32748,8.353 3.58594,12.86718 2.03445,8.22027 15.14831,5.48272 15.39844,-2.34179 2.66135,-12.10394 10.76341,-22.37141 12.65624,-34.85157 4.6545,-22.63264 -6.04551,-44.31034 -14.37497,-64.67297 -3.26175,-9.18427 -7.85135,-20.45089 -1.05862,-29.19617 4.10506,-6.27493 9.3407,-12.15386 10.85156,-19.73828 -8.6274,2.1843 -17.46789,-5.24062 -16.10583,-14.24425 0.62409,-3.40826 -2.74246,2.94759 -3.22229,2.93566 z"
   id="polygon275" />
</a>
<a
   transform="translate(742.98177)"
   xlink:href="/biaci-1"
   id="a4322">
<polygon
   points="878.5,172.5 878.5,322.5 885.5,332.5 989.5,332.5 991.5,322.5 991.5,172.5 "
   id="polygon277"
   style="opacity:0;fill:#00ffff" />
</a>
<a
   transform="translate(742.98177)"
   xlink:href="/extremadura-es-cultura"
   id="a4325">
<polygon
   style="opacity:0;fill:#00ffff"
   id="polygon279"
   points="908.5,88.5 1102.5,110.5 1102.5,2.5 908.5,21.5 " />
</a>
<a
   transform="translate(742.98177)"
   xlink:href="/thomas-florschuetz"
   id="a4334">
<polygon
   style="opacity:0;fill:#00ffff"
   id="polygon281"
   points="1169.5,278.5 1173.5,283.5 1304.5,283.5 1308.5,278.5 1308.5,163.5 1169.5,166.5 " />
</a>
<a
   transform="translate(751.76983,-3.2955242)"
   xlink:href="/netescopio"
   id="a4331">
<rect
   style="opacity:0;fill:#00ffff"
   id="rect283"
   height="101"
   width="175"
   y="397.5"
   x="982.5" />
</a>
<a
   transform="translate(742.98177)"
   xlink:href="/lax"
   id="a4340">
<polygon
   style="opacity:0;fill:#00ffff"
   id="polygon285"
   points="1317.5,477.5 1320.5,480.5 1402.5,478.5 1398.5,372.5 1320.5,372.5 " />
</a>
<a
   transform="translate(742.98177)"
   xlink:href="/multitud-singular"
   id="a4343">
<rect
   style="opacity:0;fill:#00ffff"
   id="rect287"
   height="135"
   width="95"
   y="186.5"
   x="1452.5" />
</a>
<a
   transform="translate(742.98177)"
   xlink:href="/pitch-in"
   id="a4349">
<polygon
   style="opacity:0;fill:#00ffff"
   id="polygon289"
   points="1665.5,420.5 1634.5,407.5 1618.5,393.5 1551.5,412.5 1570.5,471.5 1604.5,510.5 1661.5,476.5 " />
</a>
<a
   transform="translate(742.98177)"
   xlink:href="/de11a21"
   id="a4346">
<polygon
   style="opacity:0;fill:#00ffff"
   id="polygon291"
   points="1684.5,51.5 1684.5,66.5 1655.5,72.5 1684.5,200.5 1700.5,194.5 1702.5,204.5 1807.5,204.5 1803.5,71.5 1788.5,70.5 1786.5,46.5 " />
</a>
<a
   transform="translate(742.98177,-6)"
   xlink:href="/mncars-alia-syed"
   id="a4352">
<polygon
   style="opacity:0;fill:#00ffff"
   id="polygon293"
   points="1767.5,318.5 1767.5,419.5 1773.5,426.5 1801.5,436.5 1836.5,421.5 1836.5,321.5 1824.5,314.5 1801.5,306.5 " />
</a>
<a
   transform="translate(742.98177,-2.1970161)"
   xlink:href="/outsiders-cuba"
   id="a4358">
<polygon
   style="opacity:0;fill:#00ffff"
   id="polygon295"
   points="1968,502.5 2057.5,502.5 2057.5,412.5 1967.5,412.5 1965.5,502.5 " />
</a>
<a
   transform="translate(742.98177)"
   xlink:href="/meiac-marta-de-menezes"
   id="a4355">
<polygon
   style="opacity:0;fill:#00ffff"
   id="polygon297"
   points="1940.5,273.5 2011.5,273.5 2011.5,152.5 1942.5,152.5 " />
</a>
<a
   transform="translate(742.98177)"
   xlink:href="/chachi"
   id="a4361">
<path
   style="opacity:0;fill:#00ffff"
   d="m 2112.5,-0.921875 c -1.7661,7.1515967 -7.6408,14.586693 -15.8281,12.873047 -7.0694,0.815005 -14.472,-2.5781903 -17.8399,-8.701172 -7.507,-3.1191711 -14.8258,2.0134822 -21.8769,3.984375 0.2986,7.105493 7.185,11.320363 10.0363,17.365492 3.5349,4.202965 2.1789,10.035062 -2.3352,12.968492 -6.1906,5.767319 -15.4712,5.482593 -22.8496,7.009766 -5.045,5.707248 -0.9499,13.826273 1.252,19.791016 3.6996,4.125927 9.0514,-1.304976 13.5098,0.958984 6.1025,1.296563 8.6316,7.479278 12.0507,11.871094 2.3985,3.53768 0.1829,7.125761 -3.2187,8.599609 -4.2682,3.517713 -3.0845,10.419534 1.5251,12.998427 3.5253,4.472755 7.024,9.079305 11.6643,12.480085 5.419,-8.3474 6.3403,-20.875089 16.2227,-25.287106 7.0332,-0.968149 13.9994,3.919197 15.1234,10.948527 2.6015,4.925899 5.058,10.006639 8.7477,14.240929 5.0195,-5.93124 11.3915,-10.77419 15.2246,-17.656252 -5.2744,-5.129179 -13.1408,-13.29216 -7.0996,-20.802735 4.101,-6.881855 12.659,-9.076434 19.8633,-9.238281 5.5055,-4.394365 5.6848,-12.301899 7.2851,-18.199219 -1.9257,-7.152556 -10.5965,-5.262271 -15.9941,-4.5625 -6.9596,1.742102 -16.7411,-1.56898 -16.1934,-10.076172 0.453,-9.809042 10.0174,-15.994283 11.3848,-25.6093748 -6.8169,-2.2089854 -12.9947,-6.1093164 -20.0234,-7.7128906 l -0.3382,0.9411008 z"
   id="polygon299" />
</a>
<a
   transform="translate(742.98177)"
   xlink:href="/mncars-audiovisuales"
   id="a4364">
<polygon
   style="opacity:0;fill:#00ffff"
   id="polygon301"
   points="2329.5,290.5 2329.5,301.5 2336.5,295.5 2331.5,285.5 2342.5,254.5 2338.5,243.5 2328.5,240.5 2334.5,228.5 2327.5,224.5 2333.5,202.5 2318.5,201.5 2319.5,196.5 2268.5,197.5 2252.5,174.5 2164.5,234.5 2174.5,245.5 2158.5,260.5 2167.5,267.5 2163.5,273.5 2182.5,285.5 2195.5,300.5 2202.5,321.5 2213.5,319.5 2221.5,328.5 2220.5,343.5 2223.5,343.5 2223.5,349.5 2236.5,348.5 2235.5,357.5 2247.5,357.5 2247.5,362.5 2254.5,362.5 2258.5,370.5 2275.5,354.5 2300.5,362.5 2308.5,347.5 2322.5,347.5 2320.5,314.5 " />
</a>
<a
   transform="translate(742.98177)"
   xlink:href="/mncars-actividades"
   id="a4367">
<path
   style="opacity:0;fill:#00ffff"
   id="path303"
   d="m 2277.5,508.5 5,1 -2,5 h 8 l -2,6 5,8 43,-12 62,-1 v -5 h 6 v -6 h 3 c 0,0 -5,-31 -5,-32 0,-1 -1,-42 -1,-42 l -5,-1 1,-8 h -13 l -1,-7 -42,12 h -59 l -5,3 3,13 -7,3 7,2 -1,60 z" />
</a>
<a
   transform="translate(742.98177)"
   xlink:href="/jack-smith"
   id="a4373">
<polygon
   style="opacity:0;fill:#00ffff"
   id="polygon305"
   points="2501.5,412.5 2590.5,414.5 2595.5,410.5 2594.5,281.5 2590.5,277.5 2501.5,277.5 " />
</a>
<path
   d="M 3441.0134,338.46204"
   id="path307"
   style="opacity:0;fill:#00ffff" />
<a
   transform="translate(735.5134,8.9620437)"
   xlink:href="/extremadura-es-cultura"
   id="a4379">
<path
   style="opacity:0;fill:#00ffff"
   d="m 2772.9199,201.74219 c -17.5741,5.4608 -35.5902,19.70048 -36.0722,39.54101 0.2863,15.03372 12.5088,26.56423 24.4382,34.21185 3.9704,2.98402 7.7878,6.33966 10.3547,10.65339 -2.896,4.71924 -8.0526,9.11941 -13.9511,7.34765 -6.7442,-0.91333 -18.0577,0.57337 -17.1622,9.97266 -0.023,9.56362 7.1421,20.83304 17.8653,19.41406 14.1166,-1.71017 28.2983,1.03534 42.3554,-1.30469 4.1145,-7.216 9.2342,-15.09898 7.7364,-23.82617 -9.9447,-3.81859 -23.2756,0.15298 -30.9649,-9.05664 -3.5941,-4.13369 2.4126,-7.91126 5.3438,-9.94726 9.688,-5.8884 22.9097,-8.83085 27.4844,-20.45313 6.1505,-9.80048 7.2988,-23.60656 -0.7188,-32.71875 -7.827,-12.30751 -20.3879,-22.99825 -35.4297,-24.22461 l -0.9564,0.29204 -0.3229,0.0986 z"
   id="polygon309" />
</a>
<a
   transform="translate(742.98177)"
   xlink:href="/mncars-cine-y-casi-2007"
   id="a4388">
<polygon
   style="opacity:0;fill:#00ffff"
   id="polygon311"
   points="2970.5,322.5 3074.5,322.5 3074.5,173.5 2971.5,173.5 " />
</a>
<a
   transform="translate(742.98177)"
   xlink:href="/madrid-mirada"
   id="a4382">
<polygon
   style="opacity:0;fill:#00ffff"
   id="polygon313"
   points="2927.5,372.5 2821.5,389.5 2816.5,400.5 2875.5,528.5 2989.5,500.5 2989.5,492.5 2994.5,492.5 2989.5,485.5 3001.5,483.5 " />
</a>
<a
   transform="translate(765.38688,-59.746958)"
   xlink:href="/zulma-recchini"
   id="a4391">
<polygon
   style="opacity:0;fill:#00ffff"
   id="polygon315"
   points="3146.5,519.5 3249.5,521.5 3251.5,515.5 3251.5,361.5 3142.5,361.5 3142.5,513.5 " />
</a>
<a
   transform="translate(699.66523,-14.93674)"
   xlink:href="/claudio-gabis"
   id="a4394">
<path
   style="opacity:0;fill:#00ffff"
   d="m 3263.1387,60.214844 c -2.6096,-0.163607 2.6262,1.638575 2.2304,3.517578 0.4505,5.31752 -6.9641,4.808123 -9.5605,1.882812 -1.9952,-0.970342 -1.6816,-4.011118 -0.064,-4.818359 -8.3281,0.705971 -14.2925,7.110608 -22.164,8.996094 -12.257,4.24298 -18.8609,17.27169 -21.4473,29.208984 -2.2696,9.887317 -1.6045,20.574077 4.5643,29.050637 6.6805,10.53836 18.0343,17.93626 30.6074,18.7076 9.8233,1.0773 19.6852,-3.16134 27.5025,-8.90612 7.1987,-5.4621 13.5132,-13.36556 15.3922,-22.38337 1.1768,-7.11803 3.6238,-14.9975 -0.789,-21.630856 -3.929,-11.267797 -13.8192,-18.701929 -22.7344,-25.804688 -2.8897,-4.461316 3.6513,-8.449477 7.3222,-5.746094 4.636,0.285415 6.7642,6.33525 10.879,6.648438 2.785,-1.685391 1.1647,-4.875551 -1.9246,-4.504078 -6.4089,-2.112756 -12.9741,-4.375253 -19.8137,-4.218578 z"
   id="polygon317" />
</a>
<a
   transform="translate(742.98177)"
   xlink:href="/miquel-navarro"
   id="a4400">
<polygon
   style="opacity:0;fill:#00ffff"
   id="polygon319"
   points="3452.5,125.5 3454.5,129.5 3546.5,129.5 3546.5,125.5 3547.5,4.5 3452.5,4.5 " />
</a>
<a
   transform="translate(742.98177)"
   xlink:href="/first-generation"
   id="a4397">
<polygon
   style="opacity:0;fill:#00ffff"
   id="polygon321"
   points="3384.5,404.5 3398.5,410.5 3493.5,388.5 3496.5,238.5 3397.5,225.5 3384.5,228.5 " />
</a>
<a
   transform="translate(742.98177)"
   xlink:href="/inventario"
   id="a4425">
<path
   id="polygon323"
   d="m 3698.7119,387.56269 -80.9731,-6.59105 v 136.33134 l 81.9731,-7.1403 z"
   style="opacity:0;fill:#00ffff" />
</a>
<a
   transform="translate(702.65257,-20.911435)"
   xlink:href="/disco-flaming-star-ca2m"
   id="a4323">
<polygon
   style="opacity:0;fill:#00ffff"
   id="polygon325"
   points="3987.5,496.5 3991.5,490.5 3953.5,389.5 3873.5,405.5 3870.5,411.5 3897.5,518.5 " />
</a>
<a
   transform="translate(742.98177)"
   xlink:href="/eclectic"
   id="a4326">
<path
   id="polygon327"
   d="m 4171.291,424.92578 c -2.7611,0.0719 -5.8518,0.70306 -7.7422,2.86524 -5.0608,-4.54239 -13.6111,-0.70227 -13.5879,6.01562 -4.6463,1.43964 -9.9125,-1.04998 -14.8095,-0.44474 -3.9201,-0.34154 -8.2798,-0.0556 -11.8565,-1.08456 -2.7797,-7.01472 -11.4786,-8.25151 -17.9238,-6.60156 -4.9037,-1.38443 -12.057,-0.46818 -12.3848,5.87305 -5.1832,3.95093 -13.0721,-1.10815 -17.9687,4.16406 -1.7183,1.04327 -3.2743,5.1213 -4.4629,1.35742 -3.7488,-5.74499 -12.6145,-4.66128 -17.9219,-1.83593 -7.399,4.0564 -8.4315,13.92323 -7.2363,21.43554 1.9863,5.88866 8.2872,11.10349 14.7832,8.83008 45.2858,-0.0295 90.5717,0.0708 135.8574,-0.0723 0.682,-6.55222 10.6021,-10.21368 14.2793,-4.15429 4.8137,3.66917 10.0986,8.5696 16.3398,8.71094 6.2649,-3.00397 13.2385,-5.79714 17.9649,-10.9336 2.7212,-5.44818 0.2831,-11.78866 0.793,-17.47266 -1.9643,-6.18857 -9.3331,-7.45692 -13.4024,-11.77148 -5.9918,-3.12103 -11.4908,2.54297 -16.7265,4.69336 -4.0758,2.15866 -6.0885,6.78973 -6.4668,10.91406 -2.9567,2.13092 -7.7581,-0.20356 -7.127,-3.95312 -4.3592,-8.54573 -15.4251,-10.08727 -23.7422,-8.5293 1.3932,-3.94748 -1.2102,-8.74641 -5.7383,-8.00195 -0.306,-0.0159 -0.6135,-0.0125 -0.9199,-0.004 z"
   style="opacity:0;fill:#00ffff" />
</a>
<a
   transform="translate(742.98177)"
   xlink:href="/mncars-latinoamerica"
   id="a4335">
<rect
   style="opacity:0;fill:#00ffff"
   id="rect329"
   height="101"
   width="73"
   y="419.5"
   x="4321.5" />
</a>
<a
   transform="translate(748.47431,20.310444)"
   xlink:href="/7-impertinentes"
   id="a4337">
<polygon
   style="opacity:0;fill:#00ffff"
   id="polygon331"
   points="1429.5,55.5 1405.5,12.5 1353.5,12.5 1328.5,55.5 1353.5,99.5 1405.5,99.5 " />
</a>
<a
   transform="translate(742.98177)"
   xlink:href="/ana-luiza-martins-costa"
   id="a4370">
<polygon
   style="opacity:0;fill:#00ffff"
   id="polygon333"
   points="2432.5,114.5 2434.5,114.5 2434.5,13.5 2360.5,13.5 2360.5,114.5 2363.5,114.5 2366.5,120.5 2432.5,120.5 " />
</a>
<a
   transform="translate(742.98177)"
   xlink:href="/present-tense"
   id="a4385">
<polygon
   style="opacity:0;fill:#00ffff"
   id="polygon335"
   points="2567.5,177.5 2573.5,182.5 2657.5,180.5 2659.5,177.5 2657.5,47.5 2569.5,46.5 " />
</a>
<a
   transform="translate(707.1336,23.898783)"
   xlink:href="/bienal-venecia-es"
   id="a4376">
<polygon
   style="opacity:0;fill:#00ffff"
   id="polygon337"
   points="2884.5,-0.5 2858.5,3.5 2852.5,14.5 2843.5,98.5 2850.5,102.5 2850.5,107.5 2863.5,111.5 2861.5,115.5 2897.5,117.5 2916.5,126.5 2916.5,118.5 2933.5,118.5 2934.5,98.5 2952.5,17.5 2928.5,13.5 2925.5,4.5 " />
</a>
<a
   transform="translate(726.55135,-17.924087)"
   xlink:href="/mncars-comunicacion"
   id="a4422">
<polygon
   style="opacity:0;fill:#00ffff"
   id="polygon339"
   points="3680.5,192.5 3679.5,141.5 3747.5,136.5 3816.5,144.5 3816.5,159.5 3853.5,158.5 3860.5,261.5 3831.5,262.5 3819.5,294.5 3765.5,277.5 3718.5,296.5 3708.5,272.5 3682.5,284.5 3653.5,200.5 " />
</a>
<a
   transform="translate(742.98177)"
   xlink:href="/pilar-albarracin-2004"
   id="a4319">
<polygon
   style="opacity:0;fill:#00ffff"
   id="polygon341"
   points="4071.5,328.5 4071.5,212.5 3986.5,212.5 3982.5,328.5 3986.5,328.5 3984.5,342.5 4001.5,328.5 " />
</a>
<a
   transform="translate(742.98177)"
   xlink:href="/lineas-de-mira"
   id="a4316">
<rect
   style="opacity:0;fill:#00ffff"
   id="rect343"
   height="140"
   width="101"
   y="9.5"
   x="3937.5" />
</a>
<a
   transform="translate(742.98177)"
   xlink:href="/fluxus"
   id="a4329">
<polygon
   style="opacity:0;fill:#00ffff"
   id="polygon345"
   points="4236.5,348.5 4250.5,352.5 4329.5,338.5 4326.5,198.5 4250.5,182.5 4236.5,186.5 " />
</a>
<a
   transform="translate(742.98177)"
   xlink:href="/acerca"
   id="a4338">
<polygon
   style="opacity:0;fill:#00ffff"
   id="polygon347"
   points="4544.5,246.5 4537.5,260.5 4504.5,252.5 4502.5,266.5 4494.5,266.5 4494.5,305.5 4473.5,348.5 4484.5,357.5 4481.5,378.5 4494.5,380.5 4494.5,394.5 4535.5,394.5 4542.5,400.5 4547.5,394.5 4584.5,394.5 4584.5,343.5 4616.5,298.5 4588.5,277.5 4591.5,269.5 4584.5,269.5 4584.5,266.5 4568.5,266.5 " />
</a>
<a
   transform="translate(742.98177)"
   xlink:href="/rafael-lozano-hemmer"
   id="a4341">
<rect
   style="opacity:0;fill:#00ffff"
   id="rect349"
   height="141"
   width="107"
   y="7.5"
   x="4553.5" />
</a>
<a
   transform="translate(653.36133,14.93674)"
   xlink:href="/tempos"
   id="a4332">
<polygon
   style="opacity:0;fill:#00ffff"
   id="polygon351"
   points="4354.5,28.5 4347.5,15.5 4336.5,25.5 4315.5,12.5 4278.5,23.5 4275.5,105.5 4315.5,112.5 4339.5,105.5 4347.5,112.5 4356.5,103.5 4372.5,112.5 4381.5,103.5 4393.5,107.5 4393.5,103.5 4425.5,107.5 4433.5,103.5 4433.5,21.5 4421.5,12.5 4391.5,21.5 4391.5,12.5 4379.5,22.5 4370.5,12.5 " />
</a>
<a
   transform="translate(748.95647,35.848175)"
   xlink:href="/museo-marco"
   id="a4353">
<path
   style="opacity:0;fill:#00ffff"
   d="m 4804.3984,10.904297 c -5.9697,-0.08272 -4.4871,7.388488 -3.8359,11.25 0.2561,11.571766 -0.6433,24.103321 0.3203,35.035156 3.0188,-0.25738 9.5661,2.784759 9.6758,-1.871094 -0.38,-6.607475 1.0553,-13.164666 3.5898,-19.248047 2.699,3.570594 2.8258,8.09225 4.4825,12.033204 2.9121,-6.79498 7.0799,-12.940054 10.873,-19.253907 0.2215,10.079942 -0.453,21.071666 0.3379,30.572266 4.9312,-0.445749 11.2045,1.382275 15.2031,-0.9375 1.0768,-5.566889 3.9779,-13.22757 11.0176,-12.351563 6.6883,-0.565795 9.1836,6.728762 11.2852,11.603516 4.0809,4.559208 10.265,-0.01898 15.3007,1.964844 3.6371,1.529893 4.8307,-1.578103 3.5098,-4.425781 -2.0377,-3.995321 -0.709,-12.399736 5.248,-9.90625 5.417,3.241949 7.4319,10.12098 12.0997,14.125 2.3092,-4.18546 7.3689,-6.481568 11.7421,-3.984375 4.9866,1.859914 11.7747,6.589275 15.8848,0.601562 4.263,-4.487412 12.2899,-5.812789 16.2207,-0.123047 4.423,5.253145 11.4114,3.474449 17.3203,3.527344 4.6544,-1.161621 5.556,-7.113883 7.3574,-10.867187 1.7274,-9.068114 -0.1101,-18.487384 0.4063,-27.546876 -3.1228,-4.346362 -9.0356,-5.69184 -12.5684,-9.603515 -5.8964,2.833423 -11.1886,7.948332 -17.6718,10.205078 -6.8607,1.751117 -7.4405,-8.939711 -13.5743,-9.716797 -7.9549,4.512731 -15.5391,9.851541 -24.2792,12.802734 -1.1718,-4.281389 1.3554,-11.267883 -3.4356,-13.558593 -7.3591,0.576242 -14.7449,0.128334 -22.1152,0.279297 0.7058,5.23517 -2.9113,12.314478 -9.1094,10.488281 -5.9981,-0.241454 -10.9817,-5.08692 -12.1777,-10.818359 -3.5496,5.035806 -6.281,10.660894 -10.545,15.177734 -5.8706,-2.983317 -5.7468,-11.179609 -10.8437,-14.386719 -5.4814,3.69351 -9.3967,9.653882 -15.8731,11.853516 -4.0737,-5.224036 -8.3862,-12.716743 -15.8457,-12.919922 z"
   id="polygon353" />
</a>
<a
   transform="translate(742.98177)"
   xlink:href="/arco"
   id="a4356">
<polygon
   style="opacity:0;fill:#00ffff"
   id="polygon355"
   points="5026.5,283.5 5162.5,283.5 5162.5,98.5 5026.5,98.5 5025.5,281.5 " />
</a>
<a
   transform="translate(803.26938)"
   xlink:href="/hfde2"
   id="a4347">
<polygon
   style="opacity:0;fill:#00ffff"
   id="polygon357"
   points="4808.5,509.5 4956.5,509.5 4956.5,438.5 4808.5,435.5 " />
</a>
<a
   transform="translate(793.26938)"
   xlink:href="/hfde1"
   id="a4344">
<rect
   style="opacity:0;fill:#00ffff"
   id="rect359"
   height="74"
   width="149"
   y="435.5"
   x="4646.5" />
</a>
<a
   transform="translate(742.98177)"
   xlink:href="/ministerio-sanidad"
   id="a4350">
<polygon
   style="opacity:0;fill:#00ffff"
   id="polygon361"
   points="4890.5,345.5 4890.5,337.5 4895.5,338.5 4895.5,286.5 4908.5,190.5 4894.5,185.5 4894.5,179.5 4846.5,181.5 4795.5,168.5 4792.5,179.5 4779.5,179.5 4780.5,259.5 4769.5,332.5 4783.5,336.5 4783.5,343.5 4808.5,337.5 4885.5,351.5 4885.5,341.5 " />
</a>
<a
   transform="translate(786.00214,-2.0485891)"
   xlink:href="/samuel-beckett"
   id="a4359">
<polygon
   style="opacity:0;fill:#00ffff"
   id="polygon363"
   points="5196.5,519.5 5196.5,380.5 5101.5,380.5 5099.5,517.5 5098.5,519.5 " />
</a>
<a
   transform="translate(742.98177)"
   xlink:href="/idealista"
   id="a4362">
<polygon
   style="opacity:0;fill:#00ffff"
   id="polygon365"
   points="5515.5,274.5 5477.5,269.5 5464.5,275.5 5463.5,217.5 5298.5,185.5 5288.5,194.5 5288.5,297.5 5296.5,304.5 5323.5,297.5 5373.5,323.5 5515.5,292.5 " />
</a>
<a
   transform="translate(742.98177)"
   xlink:href="/luminaria-basica"
   id="a4365">
<polygon
   style="opacity:0;fill:#00ffff"
   id="polygon367"
   points="5301.5,129.5 5381.5,129.5 5389.5,109.5 5389.5,37.5 5349.5,37.5 5345.5,34.5 5348.5,0.5 5342.5,0.5 5340.5,33.5 5336.5,39.5 5314.5,39.5 5301.5,46.5 " />
</a>
<a
   transform="translate(742.98177)"
   xlink:href="/fecyt-identity"
   id="a4368">
<polygon
   style="opacity:0;fill:#00ffff"
   id="polygon369"
   points="5500.5,353.5 5417.5,422.5 5453.5,465.5 5468.5,514.5 5476.5,511.5 5484.5,528.5 5587.5,490.5 5578.5,472.5 5587.5,454.5 5569.5,437.5 5561.5,359.5 5506.5,367.5 " />
</a>
<a
   transform="matrix(1.3621979,0,0,0.42645047,-1327.6282,151.82627)"
   xlink:href="/monocanal"
   id="a4374">
<polygon
   style="opacity:0;fill:#00ffff"
   id="polygon371"
   points="5737.5,280.5 5678.5,271.5 5672.5,281.5 5666.5,281.5 5666.5,371.5 5799.5,371.5 5799.5,280.5 " />
</a>
<a
   transform="translate(632.44729,-1.601949)"
   xlink:href="/ps1"
   id="a4377">
<polygon
   style="opacity:0;fill:#00ffff"
   id="polygon373"
   points="5922.5,433.5 5915.5,427.5 5906.5,427.5 5907.5,431.5 5901.5,431.5 5900.5,437.5 5893.5,437.5 5884.5,446.5 5878.5,435.5 5877.5,425.5 5870.5,425.5 5870.5,438.5 5865.5,435.5 5854.5,432.5 5851.5,419.5 5846.5,432.5 5843.5,441.5 5841.5,433.5 5834.5,435.5 5835.5,432.5 5824.5,431.5 5824.5,506.5 6015.5,506.5 6016.5,433.5 5997.5,433.5 5996.5,419.5 5986.5,419.5 5986.5,435.5 5981.5,429.5 5975.5,429.5 5973.5,437.5 5966.5,436.5 5966.5,432.5 5961.5,431.5 5956.5,435.5 5955.5,431.5 5945.5,438.5 5944.5,449.5 5940.5,428.5 5936.5,449.5 5930.5,435.5 " />
</a>
<a
   transform="translate(1166.0571,149.98769)"
   xlink:href="/museo-marco-stand"
   id="a4380">
<rect
   style="opacity:0;fill:#00ffff"
   id="rect375"
   height="100"
   width="194"
   y="238.5"
   x="5976.5" />
</a>
<a
   transform="translate(767.011,60.874063)"
   xlink:href="/ulrike-ottinger"
   id="a4383">
<polygon
   style="opacity:0;fill:#00ffff"
   id="polygon377"
   points="5777.5,121.5 5859.5,124.5 5938.5,121.5 5935.5,4.5 5857.5,2.5 5777.5,5.5 5777.5,119.5 " />
</a>
<a
   transform="translate(698.5213,9.1428774)"
   xlink:href="/bienal-venecia-es"
   id="a4386">
<polygon
   style="opacity:0;fill:#00ffff"
   id="polygon379"
   points="6161.5,79.5 6156.5,122.5 6175.5,122.5 6181.5,152.5 6189.5,146.5 6189.5,152.5 6283.5,135.5 6260.5,13.5 6256.5,13.5 6257.5,5.5 6166.5,0.5 6164.5,24.5 6144.5,30.5 " />
</a>
<a
   transform="matrix(0.48785273,0,0,1.0075315,3651.0161,77.038469)"
   xlink:href="/mncars-amor"
   id="a4392">
<polygon
   transform="translate(30.459929,31.90515)"
   style="opacity:0;fill:#00ffff"
   id="polygon381"
   points="6538.5,134.5 6389.5,130.5 6387.5,232.5 6538.5,232.5 " />
</a>
<a
   transform="translate(625.77745,12.053326)"
   xlink:href="/r"
   id="a4398">
<polygon
   style="opacity:0;fill:#00ffff"
   id="polygon383"
   points="6660.5,296.5 6669.5,296.5 6709.5,310.5 6876.5,284.5 6873.5,231.5 6707.5,203.5 6660.5,219.5 " />
</a>
<a
   transform="translate(141.5184,-184.22414)"
   xlink:href="/stan-brakhage"
   id="a4404">
<path
   style="opacity:0;fill:#00ffff"
   d="m 6885.8398,389.20508 c -16.096,0.4474 -33.0056,0.0483 -48.2343,5.79101 -1.9147,4.76651 0.1182,10.35879 -1.103,15.40836 -1.3452,30.38812 -3.443,60.75709 -5.0162,91.11508 53.1137,2.22985 106.3397,3.94006 159.4844,2.82227 5.9342,-0.18814 6.3605,-6.57206 5.3586,-11.09271 -1.3279,-32.98547 -1.5665,-66.005 -2.9484,-98.9444 -2.0768,-3.20742 -4.7611,-6.78732 -9.2476,-4.78023 -24.0642,1.45294 -48.1925,3.76371 -72.2974,3.12788 -8.3516,-3.09817 -17.29,-3.57586 -25.9961,-3.44726 z"
   id="polygon387" />
</a>
<a
   transform="translate(535.50639,-206.32656)"
   xlink:href="/pixelware"
   id="a4410">
<rect
   style="opacity:0;fill:#00ffff"
   id="rect389"
   height="120"
   width="155"
   y="255.5"
   x="7063.5" />
</a>
<a
   transform="translate(126.57084,-7.7000838)"
   xlink:href="/gonzalo-puch"
   id="a4407">
<polygon
   style="opacity:0;fill:#00ffff"
   id="polygon393"
   points="7015.5,163.5 7019.5,163.5 7019.5,167.5 7160.5,168.5 7159.5,55.5 7022.5,53.5 7021.5,59.5 7016.5,59.5 " />
</a>
<a
   transform="translate(-464.98795,232.00327)"
   xlink:href="/mncars-cine-y-casi-cine"
   id="a4416">
<polygon
   style="opacity:0;fill:#00ffff"
   id="polygon395"
   points="7451.5,284.5 7477.5,283.5 7476.5,171.5 7442.5,171.5 7441.5,162.5 7431.5,164.5 7432.5,157.5 7397.5,157.5 7394.5,151.5 7388.5,157.5 7355.5,155.5 7354.5,173.5 7323.5,187.5 7354.5,245.5 7354.5,269.5 7366.5,269.5 7372.5,279.5 7370.5,290.5 7449.5,300.5 " />
</a>
<a
   transform="translate(223.02722,-94.574545)"
   xlink:href="/biombo"
   id="a4419">
<path
   style="opacity:0;fill:#00ffff"
   d="m 7441.498,381.50195 c -4.6666,3.99935 -9.3333,7.9987 -14,11.99805 19.9369,2.3252 39.8735,4.65299 59.8106,6.97656 -3.2667,15.15009 -12.4554,29.49627 -8.4634,45.47829 0.7881,9.22968 1.7427,18.46636 3.6333,27.54515 -12.6595,0 -25.319,0 -37.9785,0 -4.6667,14.9987 -9.3333,29.9974 -14,44.99609 22.9629,-0.66471 45.9258,-1.32942 68.8887,-1.99414 -3.2884,-19.37465 -4.6822,-38.98847 -12.0254,-57.30078 -0.7086,-8.17828 6.1873,-14.35585 7.9997,-21.95955 6.3589,-14.53431 12.7177,-29.06863 19.0765,-43.60295 -6.5214,-5.03848 -12.0986,-14.28136 -21.7012,-12.13847 -17.0801,5.9e-4 -34.1602,10e-4 -51.2403,0.002 z"
   id="polygon397" />
</a>
<a
   transform="translate(-42.926787,63.164136)"
   xlink:href="/trophy"
   id="a4413">
<polygon
   style="opacity:0;fill:#00ffff"
   id="polygon399"
   points="7524.5,7.5 7477.5,2.5 7466.5,10.5 7466.5,85.5 7473.5,97.5 7522.5,87.5 " />
</a>
<a
   transform="translate(742.98177)"
   xlink:href="/carcel-de-amor"
   id="a4371">
<polygon
   style="opacity:0;fill:#00ffff"
   id="polygon401"
   points="5575.5,161.5 5666.5,161.5 5666.5,39.5 5575.5,36.5 " />
</a>
<a
   transform="translate(1219.4693,3.4421054)"
   xlink:href="/dario-basso"
   id="a4389">
<polygon
   style="opacity:0;fill:#00ffff"
   id="polygon403"
   points="6256.5,518.5 6387.5,503.5 6358.5,388.5 6230.5,398.5 " />
</a>
<a
   id="a4930"
   xlink:href="/24x7"
   transform="translate(782.43739,-12.717673)">
<rect
   x="334.5"
   y="27.5"
   width="136"
   height="88"
   id="rect4932"
   style="opacity:0;fill:#00ffff" />
</a>
<a
   id="a4937"
   xlink:href="/andres-jaque"
   transform="matrix(1.6939343,0.28420208,0,1.6939343,-900.01573,-124.0669)">
<path
   id="polygon4939"
   d="m 892.72262,8.7818863 1.73802,70.3081857 147.70106,-8.687966 -0.9656,-69.3116018 z"
   style="opacity:0;fill:#00ffff"
   transform="matrix(0.33749771,0,0,1.0406855,653.51321,-4.495746)" />
</a>
<a
   id="a4944"
   xlink:href="/artur-barrio"
   transform="matrix(0.82957281,0,0,0.72766043,92.043023,305.38205)" />
<a
   id="a4954"
   xlink:href="/transutopias"
   transform="matrix(0.97276426,0,0,0.90971167,-17.645995,36.246151)">
<rect
   x="77.5"
   y="178.5"
   width="121"
   height="73"
   id="rect4956"
   style="opacity:0;fill:#00ffff" />
</a>
<a
   transform="matrix(1.2451216,0,0,1.3009611,-78.107585,-215.40941)"
   xlink:href="/artur-barrio"
   id="a4369">
<rect
   style="opacity:0;fill:#00ffff"
   id="rect4371"
   height="73"
   width="121"
   y="178.5"
   x="77.5" />
</a>
<a
   id="a240"
   xlink:href="/mncars-no-performances"
   transform="matrix(0.48785273,0,0,1.0075315,3573.6819,77.840073)">
<polygon
   points="6389.5,130.5 6387.5,232.5 6538.5,232.5 6538.5,134.5 "
   id="polygon238"
   style="opacity:0;fill:#00ffff"
   transform="translate(30.459929,31.90515)" />
</a>
<image
   xlink:href="../assets/img/escaparate/el-poder-del-arte.jpg"
   width="99.110718"
   height="148.66608"
   preserveAspectRatio="none"
   id="image5008"
   x="219.94728"
   y="258.28763" /><image
   xlink:href="../assets/img/escaparate/dorothea-tanning.jpg"
   width="108.67476"
   height="137.56299"
   preserveAspectRatio="none"
   id="image5019"
   x="293.18979"
   y="33.197433" /><image
   xlink:href="../assets/img/escaparate/lee-lozano.jpg"
   width="135.89035"
   height="169.86292"
   preserveAspectRatio="none"
   id="image5030"
   x="467.02261"
   y="158.35971" /><image
   xlink:href="../assets/img/escaparate/img-5.jpg"
   width="112.87029"
   height="145.11891"
   preserveAspectRatio="none"
   id="image5041"
   x="33.847713"
   y="371.59692" /><image
   xlink:href="../assets/img/escaparate/cine-por-mujeres.jpg"
   width="87.469246"
   height="51.83363"
   preserveAspectRatio="none"
   id="image5052"
   x="675.44379"
   y="411.17398" /><a
   id="a4954-3"
   xlink:href="/el-poder-del-arte"
   transform="matrix(0.67662586,0,0,1.787728,176.38061,-51.4885)"><rect
     x="77.5"
     y="178.5"
     width="121"
     height="73"
     id="rect4956-6"
     style="opacity:0;fill:#00ffff" /></a><a
   id="a4954-3-7"
   xlink:href="/lee-lozano"
   transform="matrix(0.91854174,0,0,2.0642686,408.71369,-201.53595)"><rect
     x="77.5"
     y="178.5"
     width="121"
     height="73"
     id="rect4956-6-5"
     style="opacity:0;fill:#00ffff" /></a><a
   transform="translate(-751.13795,422.98447)"
   xlink:href="/pilar-albarracin-18"
   id="a4325-3"><path
     id="polygon279-5"
     d="m 840.4539,57.275914 88.67358,-5.671171 -13.36151,-117.976526 -79.94084,2.85003 z"
     style="opacity:0;fill:#00ffff"
     transform="translate(-40.156147,22.08421)" /></a><a
   xlink:href="/cine-por-mujeres"
   id="a5126"><rect
     style="opacity:0;fill:#00ffff;stroke-width:0.71643919"
     id="rect4956-6-5-6"
     height="51.833626"
     width="87.469238"
     y="411.17398"
     x="675.44379" /></a><a
   xlink:href="/dorothea-tanning"
   id="a5145"><rect
     x="299.14758"
     y="39.857933"
     width="98.17231"
     height="122.72792"
     id="rect4371-2"
     style="opacity:0;fill:#00ffff;stroke-width:1.16791725" /></a></svg>